<?xml version="1.0" encoding="UTF-8" standalone="no"?>
<svg
   xmlns:dc="http://purl.org/dc/elements/1.1/"
   xmlns:cc="http://creativecommons.org/ns#"
   xmlns:rdf="http://www.w3.org/1999/02/22-rdf-syntax-ns#"
   xmlns:svg="http://www.w3.org/2000/svg"
   xmlns="http://www.w3.org/2000/svg"
   xmlns:sodipodi="http://sodipodi.sourceforge.net/DTD/sodipodi-0.dtd"
   xmlns:inkscape="http://www.inkscape.org/namespaces/inkscape"
   width="248.23222mm"
   height="212.33929mm"
   viewBox="0 0 248.23222 212.3393"
   version="1.1"
   preserveAspectRatio="xMidYMid meet"
   id="svg863"
   sodipodi:docname="laser_C_v1.svg"
   inkscape:version="1.0 (4035a4fb49, 2020-05-01)">
  <metadata
     id="metadata869">
    <rdf:RDF>
      <cc:Work
         rdf:about="">
        <dc:format>image/svg+xml</dc:format>
        <dc:type
           rdf:resource="http://purl.org/dc/dcmitype/StillImage" />
        <dc:title></dc:title>
      </cc:Work>
    </rdf:RDF>
  </metadata>
  <defs
     id="defs867">
    <inkscape:path-effect
       lpeversion="1"
       is_visible="true"
       id="path-effect3939"
       effect="spiro" />
    <inkscape:path-effect
       effect="spiro"
       id="path-effect3937"
       is_visible="true"
       lpeversion="1" />
    <inkscape:path-effect
       lpeversion="1"
       is_visible="true"
       id="path-effect3935"
       effect="spiro" />
    <inkscape:path-effect
       effect="spiro"
       id="path-effect1595"
       is_visible="true"
       lpeversion="1" />
    <inkscape:path-effect
       effect="spiro"
       id="path-effect1487"
       is_visible="true"
       lpeversion="1" />
    <inkscape:path-effect
       lpeversion="1"
       is_visible="true"
       id="path-effect1381"
       effect="spiro" />
    <marker
       inkscape:stockid="Arrow1Lend"
       orient="auto"
       refY="0"
       refX="0"
       id="Arrow1Lend"
       style="overflow:visible"
       inkscape:isstock="true">
      <path
         id="path954"
         d="M 0,0 5,-5 -12.5,0 5,5 Z"
         style="fill:#00aa00;fill-opacity:1;fill-rule:evenodd;stroke:#00aa00;stroke-width:1pt;stroke-opacity:1"
         transform="matrix(-0.8,0,0,-0.8,-10,0)" />
    </marker>
    <inkscape:path-effect
       effect="spiro"
       id="path-effect949"
       is_visible="true"
       lpeversion="1" />
    <marker
       inkscape:isstock="true"
       style="overflow:visible"
       id="Arrow1Lend-6"
       refX="0"
       refY="0"
       orient="auto"
       inkscape:stockid="Arrow1Lend">
      <path
         transform="matrix(-0.8,0,0,-0.8,-10,0)"
         style="fill:#00aa00;fill-opacity:1;fill-rule:evenodd;stroke:#00aa00;stroke-width:1pt;stroke-opacity:1"
         d="M 0,0 5,-5 -12.5,0 5,5 Z"
         id="path954-0" />
    </marker>
    <marker
       inkscape:stockid="Arrow1Lend"
       orient="auto"
       refY="0"
       refX="0"
       id="Arrow1Lend-6-1"
       style="overflow:visible"
       inkscape:isstock="true">
      <path
         id="path954-0-2"
         d="M 0,0 5,-5 -12.5,0 5,5 Z"
         style="fill:#00aa00;fill-opacity:1;fill-rule:evenodd;stroke:#00aa00;stroke-width:1pt;stroke-opacity:1"
         transform="matrix(-0.8,0,0,-0.8,-10,0)" />
    </marker>
    <marker
       inkscape:stockid="Arrow1Lend"
       orient="auto"
       refY="0"
       refX="0"
       id="Arrow1Lend-6-5"
       style="overflow:visible"
       inkscape:isstock="true">
      <path
         id="path954-0-6"
         d="M 0,0 5,-5 -12.5,0 5,5 Z"
         style="fill:#00aa00;fill-opacity:1;fill-rule:evenodd;stroke:#00aa00;stroke-width:1pt;stroke-opacity:1"
         transform="matrix(-0.8,0,0,-0.8,-10,0)" />
    </marker>
    <marker
       inkscape:isstock="true"
       style="overflow:visible"
       id="Arrow1Lend-64"
       refX="0"
       refY="0"
       orient="auto"
       inkscape:stockid="Arrow1Lend">
      <path
         transform="matrix(-0.8,0,0,-0.8,-10,0)"
         style="fill:#00aa00;fill-opacity:1;fill-rule:evenodd;stroke:#00aa00;stroke-width:1pt;stroke-opacity:1"
         d="M 0,0 5,-5 -12.5,0 5,5 Z"
         id="path954-6" />
    </marker>
    <marker
       inkscape:stockid="Arrow1Lend"
       orient="auto"
       refY="0"
       refX="0"
       id="Arrow1Lend-6-2"
       style="overflow:visible"
       inkscape:isstock="true">
      <path
         id="path954-0-4"
         d="M 0,0 5,-5 -12.5,0 5,5 Z"
         style="fill:#00aa00;fill-opacity:1;fill-rule:evenodd;stroke:#00aa00;stroke-width:1pt;stroke-opacity:1"
         transform="matrix(-0.8,0,0,-0.8,-10,0)" />
    </marker>
    <marker
       inkscape:isstock="true"
       style="overflow:visible"
       id="Arrow1Lend-6-1-4"
       refX="0"
       refY="0"
       orient="auto"
       inkscape:stockid="Arrow1Lend">
      <path
         transform="matrix(-0.8,0,0,-0.8,-10,0)"
         style="fill:#00aa00;fill-opacity:1;fill-rule:evenodd;stroke:#00aa00;stroke-width:1pt;stroke-opacity:1"
         d="M 0,0 5,-5 -12.5,0 5,5 Z"
         id="path954-0-2-1" />
    </marker>
  </defs>
  <sodipodi:namedview
     inkscape:document-rotation="0"
     pagecolor="#ffffff"
     bordercolor="#666666"
     borderopacity="1"
     objecttolerance="10"
     gridtolerance="10"
     guidetolerance="10"
     inkscape:pageopacity="0"
     inkscape:pageshadow="2"
     inkscape:window-width="2400"
     inkscape:window-height="1271"
     id="namedview865"
     showgrid="false"
     inkscape:zoom="0.8384344"
     inkscape:cx="629.50669"
     inkscape:cy="351.16878"
     inkscape:window-x="2391"
     inkscape:window-y="-9"
     inkscape:window-maximized="1"
     inkscape:current-layer="svg863"
     fit-margin-top="0"
     fit-margin-left="0"
     fit-margin-right="0"
     fit-margin-bottom="0" />
  <path
     vector-effect="non-scaling-stroke"
     style="font-size:12px;fill:none;fill-rule:evenodd;stroke:#ff0000;stroke-width:0.1;stroke-linecap:butt;stroke-miterlimit:5.30435;stroke-dasharray:none"
     stroke-width="0.1"
     stroke="#FF0000"
     id="front_outsideCutPath"
     d="m 0.05,144.23338 v 10.5 h 4.0000001 v 8 H 0.05 v 8 2.5 h 15.999999 v -4 h 8 v 4 h 8 v -4 h 8 v 4 h 8 v -4 h 8 v 4 h 8 v -4 h 8 v 4 h 8 v -4 h 8 v 4 h 8 v -4 h 7.999981 v 4 h 8 v -4 h 8 v 4 h 8 v -4 h 8 v 4 h 8 v -4 h 8 v 4 h 8 v -4 h 8 v 4 h 8 v -4 h 8 v 4 h 8 v -4 h 8 v 4 h 8 v -4 h 8 v 4 h 8 v -4 h 8 v 4 h 8 8 v -10.5 h -4 v -8 h 4 v -8 -2.5 z" />
  <path
     vector-effect="non-scaling-stroke"
     style="font-size:12px;fill:none;fill-rule:evenodd;stroke:#ff0000;stroke-width:0.1;stroke-linecap:butt;stroke-miterlimit:5.30435;stroke-dasharray:none"
     stroke-width="0.1"
     stroke="#FF0000"
     id="back_outsideCutPath"
     d="m 0.05,0.05 v 124.27089 h 4.0000001 v 8 H 0.05 v 8 2.5 h 15.999999 v -4 h 8 v 4 h 8 v -4 h 8 v 4 h 8 v -4 h 8 v 4 h 8 v -4 h 8 v 4 h 8 v -4 h 8 v 4 h 8 v -4 h 7.999981 v 4 h 8 v -4 h 8 v 4 h 8 v -4 h 8 v 4 h 8 v -4 h 8 v 4 h 8 v -4 h 8 v 4 h 8 v -4 h 8 v 4 h 8 v -4 h 8 v 4 h 8 v -4 h 8 v 4 h 8 v -4 h 8 v 4 h 8 8 v -10.5 h -4 v -8 h 4 l 5e-5,-8 V 0.05 Z"
     sodipodi:nodetypes="cccccccccccccccccccccccccccccccccccccccccccccccccccccccccccccccccccccccc" />
  <path
     vector-effect="non-scaling-stroke"
     style="font-size:12px;fill:none;fill-rule:evenodd;stroke:#ff0000;stroke-width:0.1;stroke-linecap:butt;stroke-miterlimit:5.30435;stroke-dasharray:none"
     stroke-width="0.1"
     stroke="#FF0000"
     id="bottom_outsideCutPath"
     d="m 4.1822254,178.28927 v 3 H 0.1822253 v 8 h 4.0000001 v 8 H 0.1822253 v 8 h 4.0000001 v 3.00001 H 16.182224 v 4 h 8 v -4 h 8 v 4 h 8 v -4 h 8 v 4 h 8 v -4 h 8 v 4 h 8 v -4 h 8 v 4 h 8 v -4 h 8 v 4 h 7.999986 v -4 h 8 v 4 h 8 v -4 h 8 v 4 h 8 v -4 h 8 v 4 h 8 v -4 h 8 v 4 h 8 v -4 h 8 v 4 h 8 v -4 h 8 v 4 h 8 v -4 h 8 v 4 h 8 v -4 h 8 v 4 h 8 v -4 h 8 4 v -3.00001 h 4 v -8 h -4 v -8 h 4 v -8 h -4 v -3 h -12 v -4 h -8 v 4 h -8 v -4 h -8 v 4 h -8 v -4 h -8 v 4 h -8 v -4 h -8 v 4 h -8 v -4 h -8 v 4 h -8 v -4 h -8 v 4 h -8 v -4 h -8 v 4 h -8 v -4 h -8 v 4 h -8 v -4 h -7.999986 v 4 h -8 v -4 h -8 v 4 h -8 v -4 h -8 v 4 h -8 v -4 h -8 v 4 h -8 v -4 h -8 v 4 h -8 v -4 h -8 v 4 H 8.1822244 Z" />
  <ellipse
     style="opacity:0.997;fill:none;fill-opacity:1;stroke:#ff0000;stroke-width:0.1;stroke-linecap:butt;stroke-miterlimit:5.30435;stroke-dasharray:none;stroke-opacity:1"
     id="path895"
     cx="-215.1689"
     cy="-100.84454"
     rx="5.9189186"
     ry="5.9189181"
     transform="scale(-1)" />
  <ellipse
     cy="-92.691788"
     cx="-232.56729"
     id="path895-1"
     style="opacity:0.997;fill:none;fill-opacity:0.371795;stroke:#ff0000;stroke-width:0.1;stroke-linecap:butt;stroke-miterlimit:5.30435;stroke-dasharray:none;stroke-opacity:1"
     rx="2.4662161"
     ry="2.4662158"
     transform="scale(-1)" />
  <ellipse
     ry="2.4662158"
     rx="2.4662161"
     style="opacity:0.997;fill:none;fill-opacity:0.371795;stroke:#ff0000;stroke-width:0.1;stroke-linecap:butt;stroke-miterlimit:5.30435;stroke-dasharray:none;stroke-opacity:1"
     id="path895-1-9"
     cx="-197.98973"
     cy="-92.648399"
     transform="scale(-1)" />
  <ellipse
     ry="5.9189181"
     rx="5.9189186"
     cy="-56.399776"
     cx="-33.169895"
     id="path895-2"
     style="opacity:0.997;fill:none;fill-opacity:1;stroke:#ff0000;stroke-width:0.1;stroke-linecap:butt;stroke-miterlimit:5.30435;stroke-dasharray:none;stroke-opacity:1"
     transform="scale(-1)" />
  <ellipse
     ry="2.4662158"
     rx="2.4662161"
     style="opacity:0.997;fill:none;fill-opacity:0.371795;stroke:#ff0000;stroke-width:0.1;stroke-linecap:butt;stroke-miterlimit:5.30435;stroke-dasharray:none;stroke-opacity:1"
     id="path895-1-7"
     cx="-50.568272"
     cy="-48.247028"
     transform="scale(-1)" />
  <ellipse
     cy="-48.20364"
     cx="-15.990741"
     id="path895-1-9-1"
     style="opacity:0.997;fill:none;fill-opacity:0.371795;stroke:#ff0000;stroke-width:0.1;stroke-linecap:butt;stroke-miterlimit:5.30435;stroke-dasharray:none;stroke-opacity:1"
     rx="2.4662161"
     ry="2.4662158"
     transform="scale(-1)" />
  <ellipse
     style="opacity:0.997;fill:none;fill-opacity:1;stroke:#ff0000;stroke-width:0.1;stroke-linecap:butt;stroke-miterlimit:5.30435;stroke-dasharray:none;stroke-opacity:1"
     id="path895-2-6"
     cx="-202.2471"
     cy="-33.736813"
     rx="5.9189186"
     ry="5.9189181"
     transform="scale(-1)" />
  <ellipse
     cy="-25.584068"
     cx="-219.64549"
     id="path895-1-7-2"
     style="opacity:0.997;fill:none;fill-opacity:0.371795;stroke:#ff0000;stroke-width:0.1;stroke-linecap:butt;stroke-miterlimit:5.30435;stroke-dasharray:none;stroke-opacity:1"
     rx="2.4662161"
     ry="2.4662158"
     transform="scale(-1)" />
  <ellipse
     ry="2.4662158"
     rx="2.4662161"
     style="opacity:0.997;fill:none;fill-opacity:0.371795;stroke:#ff0000;stroke-width:0.1;stroke-linecap:butt;stroke-miterlimit:5.30435;stroke-dasharray:none;stroke-opacity:1"
     id="path895-1-9-1-3"
     cx="-185.06793"
     cy="-25.54068"
     transform="scale(-1)" />
  <ellipse
     transform="rotate(176.22298)"
     cy="-13.13561"
     cx="-106.93813"
     id="path895-1-9-1-8-1-9-8"
     style="opacity:0.997;fill:none;fill-opacity:0.371795;stroke:#ff0000;stroke-width:0.0472961;stroke-opacity:1"
     rx="1.7262901"
     ry="1.7262899" />
  <ellipse
     cy="-17.681913"
     cx="-116.3819"
     id="path895-1-9-1-8-1-9-85"
     style="opacity:0.997;fill:none;fill-opacity:0.371795;stroke:#ff0000;stroke-width:0.081079;stroke-opacity:1"
     rx="2.9593544"
     ry="2.9593542"
     transform="rotate(176.22298)" />
  <ellipse
     ry="5.9189181"
     rx="5.9189186"
     cy="59.669796"
     cx="-110.49333"
     id="path895-2-7"
     style="opacity:0.997;fill:none;fill-opacity:1;stroke:#ff0000;stroke-width:0.1;stroke-linecap:butt;stroke-miterlimit:5.30435;stroke-dasharray:none;stroke-opacity:1"
     transform="matrix(-0.95991482,0.28029188,0.28029188,0.95991482,0,0)" />
  <ellipse
     ry="2.4662158"
     rx="2.4662161"
     style="opacity:0.997;fill:none;fill-opacity:0.371795;stroke:#ff0000;stroke-width:0.1;stroke-linecap:butt;stroke-miterlimit:5.30435;stroke-dasharray:none;stroke-opacity:1"
     id="path895-1-7-7"
     cx="-128.29378"
     cy="68.182236"
     transform="matrix(-0.95991482,0.28029188,0.28029188,0.95991482,0,0)" />
  <ellipse
     cy="67.50631"
     cx="-92.912125"
     id="path895-1-9-1-8"
     style="opacity:0.997;fill:none;fill-opacity:0.371795;stroke:#ff0000;stroke-width:0.1;stroke-linecap:butt;stroke-miterlimit:5.30435;stroke-dasharray:none;stroke-opacity:1"
     rx="2.4662161"
     ry="2.4662158"
     transform="matrix(-0.95991482,0.28029188,0.28029188,0.95991482,0,0)" />
  <ellipse
     transform="matrix(-0.95991482,0.28029188,0.28029188,0.95991482,0,0)"
     cy="104.76851"
     cx="23.636293"
     id="path895-1-7-7-2"
     style="opacity:0.997;fill:none;fill-opacity:0.371795;stroke:#ff0000;stroke-width:0.1;stroke-linecap:butt;stroke-miterlimit:5.30435;stroke-dasharray:none;stroke-opacity:1"
     rx="2.4662161"
     ry="2.4662158" />
  <ellipse
     ry="1.7014463"
     rx="1.7293388"
     cy="98.875969"
     cx="174.2502"
     id="path4052"
     style="opacity:0.997;fill:none;fill-opacity:0.371795;stroke:#ff0000;stroke-width:0.1;stroke-linecap:butt;stroke-miterlimit:5.30435;stroke-dasharray:none" />
  <ellipse
     style="opacity:0.997;fill:none;fill-opacity:0.371795;stroke:#ff0000;stroke-width:0.1;stroke-linecap:butt;stroke-miterlimit:5.30435;stroke-dasharray:none"
     id="path4052-3"
     cx="148.10832"
     cy="83.862274"
     rx="1.7293388"
     ry="1.7014464" />
  <ellipse
     ry="1.7014465"
     rx="1.7293388"
     cy="100.09245"
     cx="117.9158"
     id="path4052-3-7"
     style="opacity:0.997;fill:none;fill-opacity:0.371795;stroke:#ff0000;stroke-width:0.1;stroke-linecap:butt;stroke-miterlimit:5.30435;stroke-dasharray:none" />
  <ellipse
     style="opacity:0.997;fill:none;fill-opacity:0.371795;stroke:#ff0000;stroke-width:0.1;stroke-linecap:butt;stroke-miterlimit:5.30435;stroke-dasharray:none"
     id="path4052-3-7-8"
     cx="13.098368"
     cy="13.076648"
     rx="1.7293388"
     ry="1.7014467" />
  <ellipse
     transform="scale(-1,1)"
     ry="1.7014467"
     rx="1.7293388"
     cy="13.07663"
     cx="-235.00168"
     id="path4052-3-7-8-2"
     style="opacity:0.997;fill:none;fill-opacity:0.371795;stroke:#ff0000;stroke-width:0.1;stroke-linecap:butt;stroke-miterlimit:5.30435;stroke-dasharray:none" />
  <path
     style="fill:#000000;stroke-width:0.0184671"
     d="m 25.463412,89.932099 c -0.08142,-0.0199 -0.197499,-0.08368 -0.242528,-0.133227 -0.09842,-0.108305 -0.107958,-0.151033 -0.114474,-0.512819 -0.0075,-0.412612 0.0054,-0.473493 0.1263,-0.594285 0.110334,-0.11034 0.234417,-0.154533 0.433841,-0.154533 0.199592,0 0.323625,0.04416 0.433412,0.154473 0.11603,0.116532 0.129837,0.175644 0.129837,0.55596 0,0.197497 -0.0086,0.347834 -0.02257,0.394904 -0.03241,0.109127 -0.164875,0.23526 -0.288875,0.275058 -0.102408,0.03285 -0.347783,0.04069 -0.454941,0.01449 z m 0.366838,-0.229741 c 0.03352,-0.01398 0.07895,-0.04838 0.100974,-0.07636 0.03765,-0.04786 0.04004,-0.07043 0.04004,-0.378333 0,-0.304071 -0.0028,-0.330916 -0.03857,-0.376447 -0.06015,-0.07649 -0.131028,-0.103697 -0.269838,-0.103624 -0.09187,3.8e-5 -0.14141,0.0097 -0.184585,0.0361 -0.114044,0.06954 -0.119412,0.09137 -0.112988,0.459602 0.0057,0.32337 0.007,0.333719 0.05095,0.380434 0.02483,0.02641 0.07054,0.05541 0.10157,0.06443 0.08724,0.02537 0.244975,0.02242 0.312452,-0.0059 z m 4.554654,0.219844 c -0.109736,-0.03558 -0.209278,-0.120327 -0.256881,-0.21866 -0.03528,-0.07287 -0.03859,-0.112071 -0.03859,-0.455874 0,-0.343099 0.0033,-0.383105 0.03838,-0.455414 0.04502,-0.093 0.123042,-0.163594 0.238636,-0.21593 0.06412,-0.029 0.121058,-0.03758 0.249304,-0.03728 0.184962,2.87e-4 0.258875,0.02374 0.377688,0.119179 0.08103,0.0651 0.08059,0.06969 -0.01708,0.18208 l -0.05524,0.06354 -0.04187,-0.03825 c -0.117704,-0.107655 -0.324741,-0.133872 -0.440809,-0.05585 -0.08992,0.06044 -0.106834,0.129802 -0.106834,0.437957 0,0.413819 0.03665,0.471341 0.299698,0.470349 0.129619,-3.55e-4 0.16389,-0.0078 0.241392,-0.05104 0.04968,-0.02781 0.0921,-0.0483 0.09427,-0.04564 0.0021,0.0029 0.02643,0.04098 0.05391,0.08507 0.04734,0.076 0.04831,0.08203 0.01852,0.114956 -0.01729,0.01916 -0.06917,0.05304 -0.115262,0.07533 -0.108308,0.05238 -0.411864,0.0668 -0.539196,0.02545 z m 3.976575,-0.0067 c -0.129461,-0.04475 -0.216124,-0.114816 -0.263816,-0.213341 -0.03767,-0.0778 -0.03955,-0.104105 -0.03419,-0.479116 l 0.0057,-0.39679 0.0554,-0.08002 c 0.04047,-0.05852 0.08999,-0.09737 0.183822,-0.14445 0.120337,-0.06036 0.139517,-0.06443 0.304709,-0.06376 0.200332,5.92e-4 0.313703,0.03906 0.423227,0.14297 0.119021,0.112907 0.130822,0.164045 0.130822,0.566923 0,0.31041 -0.0047,0.37044 -0.03402,0.435005 -0.045,0.09909 -0.172398,0.205648 -0.286271,0.239469 -0.126616,0.03765 -0.366405,0.03418 -0.485314,-0.0067 z m 0.406865,-0.212883 c 0.03352,-0.01398 0.07895,-0.04838 0.100975,-0.07636 0.03773,-0.04793 0.04004,-0.0702 0.04004,-0.386589 v -0.335684 l -0.05078,-0.04734 c -0.08041,-0.07501 -0.134997,-0.09506 -0.255497,-0.09392 -0.133854,0.0015 -0.216653,0.03892 -0.266945,0.121429 -0.03187,0.05223 -0.03606,0.09416 -0.03613,0.360128 -3.6e-5,0.226827 0.0065,0.313762 0.02667,0.352754 0.02816,0.05451 0.08884,0.102224 0.149449,0.117625 0.07495,0.01901 0.2335,0.0125 0.2922,-0.01198 z m 1.990926,0.220805 c -0.121294,-0.03957 -0.214521,-0.113357 -0.26846,-0.212453 -0.04801,-0.08822 -0.04869,-0.09457 -0.04869,-0.460053 0,-0.250343 0.0073,-0.387351 0.02244,-0.422244 0.04603,-0.105857 0.112969,-0.172404 0.232763,-0.231384 0.112189,-0.05518 0.135618,-0.05984 0.297995,-0.0591 0.142479,5.99e-4 0.194727,0.009 0.272764,0.04349 0.100755,0.04446 0.233208,0.170873 0.264091,0.252104 0.02319,0.06103 0.02347,0.766616 2.93e-4,0.827505 -0.027,0.07102 -0.146594,0.194279 -0.230402,0.237464 -0.09721,0.05008 -0.419973,0.06472 -0.542838,0.0247 z m 0.413709,-0.230333 c 0.119568,-0.0543 0.137107,-0.111634 0.137075,-0.447951 -3.8e-5,-0.322934 -0.0179,-0.384332 -0.129241,-0.444518 -0.05098,-0.02752 -0.09462,-0.03366 -0.20651,-0.02922 -0.167994,0.0067 -0.232735,0.04394 -0.270319,0.155094 -0.03497,0.103372 -0.02332,0.628056 0.01521,0.686474 0.07126,0.107972 0.302519,0.148791 0.453785,0.08008 z m 0.957009,0.240135 C 38.025826,89.906526 37.91271,89.830794 37.855683,89.7496 l -0.05622,-0.08006 v -0.421543 -0.421548 l 0.0554,-0.08011 c 0.04048,-0.05851 0.08988,-0.0974 0.183377,-0.144308 0.119156,-0.05977 0.139515,-0.06414 0.295474,-0.06266 0.107337,0.0015 0.196894,0.01258 0.249332,0.03225 0.08778,0.03292 0.204411,0.113365 0.204411,0.141039 0,0.0093 -0.02329,0.05363 -0.05173,0.09847 l -0.05173,0.08157 -0.04792,-0.03491 c -0.119165,-0.0868 -0.366471,-0.119216 -0.4763,-0.06244 -0.105088,0.0543 -0.111002,0.07824 -0.111002,0.448631 0,0.20738 0.0078,0.35322 0.01997,0.376041 0.04984,0.09313 0.310773,0.140085 0.451548,0.08126 l 0.06404,-0.02678 v -0.148636 -0.14868 h -0.129279 -0.12927 v -0.101567 -0.101567 h 0.258987 0.258984 l -0.0051,0.309324 -0.0051,0.309322 -0.145721,0.07331 c -0.136258,0.06857 -0.157252,0.07361 -0.323174,0.0776 -0.0976,0.0022 -0.203232,-0.0022 -0.234739,-0.01043 z M 26.488339,89.238762 v -0.692517 h 0.38781 0.387811 l 3.7e-5,0.115422 3.6e-5,0.115422 -0.258571,-0.0052 -0.258584,-0.0052 v 0.176406 0.176414 h 0.221606 0.221607 v 0.110799 0.110806 h -0.221607 -0.221606 v 0.295475 0.295474 h -0.129269 -0.12927 z m 1.680509,0.120038 v -0.572479 l -0.180054,-0.0022 c -0.09903,-0.0015 -0.190443,-0.0015 -0.203138,5.99e-4 -0.01642,0.0022 -0.02308,-0.03189 -0.02308,-0.117848 V 88.54602 h 0.535546 0.535547 v 0.120038 0.120045 h -0.203138 -0.203139 v 0.572472 0.572493 H 28.29812 28.16885 Z m 0.886424,-0.120038 v -0.692517 h 0.387809 0.38781 l 3.7e-5,0.115422 3.7e-5,0.115422 -0.25857,-0.0052 -0.258583,-0.0052 v 0.176406 0.176414 h 0.222527 0.222527 l -0.0055,0.106182 -0.0055,0.10619 -0.216988,-3.54e-4 -0.216989,-3.56e-4 v 0.189788 0.189774 h 0.286241 0.286239 v 0.110805 0.110806 h -0.415562 -0.415509 v -0.692545 z m 2.234523,0 v -0.692517 h 0.12927 0.129269 v 0.304707 0.304708 h 0.276551 0.276549 l 0.0051,-0.300084 0.0051,-0.300099 0.124654,-0.0052 0.124653,-0.0052 v 0.69336 0.693367 h -0.129217 -0.12927 v -0.27701 -0.277012 h -0.277007 -0.277011 v 0.277012 0.27701 h -0.129269 -0.12927 z m 1.36657,-5.92e-4 v -0.693183 l 0.16714,0.0052 0.167144,0.0052 0.152978,0.295468 c 0.08414,0.162514 0.212523,0.411318 0.285299,0.552904 l 0.132327,0.257423 v -0.558466 -0.558387 l 0.113301,0.0052 0.113299,0.0052 0.0021,0.6879 0.0021,0.687901 h -0.178271 l -0.178267,7e-6 -0.157675,-0.30933 c -0.08665,-0.170191 -0.210022,-0.41091 -0.274095,-0.53498 l -0.116503,-0.225592 -0.0049,0.534923 -0.0049,0.534914 h -0.11048 -0.110523 V 89.23726 Z m 2.770069,5.92e-4 v -0.692517 h 0.129269 0.12927 v 0.581711 0.581718 h 0.30471 0.304707 v 0.110806 0.110806 h -0.433976 -0.43398 z m 4.007369,0.423746 v -0.268793 l -0.240075,-0.413493 c -0.132036,-0.227419 -0.240071,-0.418101 -0.240071,-0.423731 0,-0.02197 0.272729,-0.0099 0.290431,0.01279 0.0098,0.01272 0.08358,0.149998 0.163791,0.305122 0.110145,0.213001 0.150384,0.275768 0.164369,0.256417 0.0102,-0.01406 0.08501,-0.151278 0.166262,-0.304863 l 0.147737,-0.279245 0.143121,-2.96e-4 c 0.07871,-1.48e-4 0.143122,0.0045 0.143122,0.0091 0,0.0052 -0.108032,0.192703 -0.240076,0.416764 l -0.240071,0.407375 v 0.275762 0.275752 H 39.563074 39.433803 V 89.662397 Z M 23.422228,87.890997 c -0.113173,-0.03625 -0.229725,-0.139693 -0.266823,-0.236836 -0.02528,-0.0662 -0.02928,-0.142726 -0.02454,-0.467516 l 0.0057,-0.38838 0.05081,-0.07671 c 0.14426,-0.217802 0.545333,-0.284926 0.815585,-0.136512 0.127657,0.07012 0.135436,0.08995 0.074,0.188796 l -0.05138,0.08266 -0.11894,-0.05999 c -0.09425,-0.04757 -0.141635,-0.05999 -0.228255,-0.05999 -0.120066,0 -0.240623,0.04838 -0.273431,0.109651 -0.01114,0.02079 -0.01908,0.176584 -0.01908,0.374406 0,0.376884 0.0069,0.402456 0.121856,0.45048 0.08023,0.03351 0.268304,0.03299 0.349648,-0.0015 l 0.06404,-0.02678 V 87.49411 87.345437 h -0.129271 -0.129269 v -0.101574 -0.101566 h 0.25854 0.258539 v 0.311024 0.311032 l -0.152354,0.07168 c -0.14114,0.06643 -0.165945,0.07205 -0.337025,0.07649 -0.122816,0.0029 -0.212696,-0.0045 -0.268339,-0.02197 z m 5.148251,-8.1e-5 c -0.104253,-0.02871 -0.258169,-0.123582 -0.297299,-0.183301 -0.02658,-0.04054 -0.02413,-0.04631 0.05143,-0.120482 l 0.07935,-0.07788 0.05327,0.05023 c 0.02929,0.02759 0.09788,0.07086 0.152405,0.09611 0.211486,0.09796 0.46165,-0.0037 0.419785,-0.17037 -0.01468,-0.05852 -0.09704,-0.111236 -0.232689,-0.148978 -0.287516,-0.07999 -0.440345,-0.17443 -0.480845,-0.297146 -0.01201,-0.03639 -0.01851,-0.118366 -0.01445,-0.182161 0.01245,-0.195448 0.122032,-0.297791 0.366291,-0.342079 0.179973,-0.03262 0.39922,0.0162 0.524199,0.116723 l 0.05355,0.04306 -0.07103,0.09514 c -0.06277,0.08408 -0.0744,0.09209 -0.10005,0.06887 -0.06088,-0.05511 -0.195583,-0.101352 -0.296132,-0.101684 -0.181695,-6e-4 -0.287377,0.111449 -0.207264,0.219769 0.04467,0.06036 0.09067,0.08254 0.292825,0.140958 0.201582,0.05822 0.307979,0.118618 0.365982,0.207683 0.14126,0.216884 0.02738,0.507181 -0.228815,0.583264 -0.118231,0.03514 -0.307583,0.03617 -0.430513,0.0022 z m 2.823473,-0.0015 c -0.11454,-0.03624 -0.2532,-0.171405 -0.284722,-0.277543 -0.01539,-0.05178 -0.02258,-0.237339 -0.02258,-0.583154 V 86.52159 l 0.124655,0.0015 0.124652,0.0015 0.0092,0.519786 c 0.0086,0.486499 0.01161,0.522443 0.04617,0.561183 0.125014,0.140085 0.439536,0.113988 0.513861,-0.04261 0.02647,-0.05585 0.03092,-0.135018 0.03092,-0.552321 v -0.487172 l 0.120797,-0.0029 0.120795,-0.0029 -0.0054,0.560428 -0.0054,0.560414 -0.05612,0.07981 c -0.03746,0.05326 -0.09225,0.0983 -0.164797,0.13544 -0.09568,0.04897 -0.129823,0.05615 -0.285526,0.05977 -0.118392,0.0029 -0.206506,-0.0052 -0.266592,-0.02426 z m 6.959524,0.0045 c -0.118916,-0.03956 -0.217299,-0.09681 -0.281571,-0.16376 l -0.05997,-0.06244 0.08174,-0.08023 0.08173,-0.08021 0.07733,0.0662 c 0.133166,0.113979 0.303372,0.151299 0.436454,0.0957 0.08246,-0.03447 0.115368,-0.07592 0.11613,-0.146357 0.0011,-0.08944 -0.06092,-0.133776 -0.284227,-0.20357 -0.11251,-0.03514 -0.242842,-0.08825 -0.289623,-0.117967 -0.230998,-0.146758 -0.215859,-0.511857 0.02609,-0.62898 0.228154,-0.110443 0.49317,-0.08603 0.727351,0.06702 l 0.04049,0.02648 -0.06531,0.0909 c -0.03592,0.04994 -0.06794,0.09091 -0.07116,0.09091 -0.0032,0 -0.05853,-0.02493 -0.122921,-0.05541 -0.157446,-0.07448 -0.300581,-0.07731 -0.383433,-0.0076 -0.04203,0.03536 -0.05682,0.06347 -0.05682,0.107944 0,0.09037 0.0863,0.151151 0.277008,0.195107 0.151502,0.03491 0.317657,0.115666 0.372757,0.181147 0.157915,0.187665 0.09919,0.479065 -0.119173,0.591438 -0.107756,0.05548 -0.382378,0.0739 -0.502891,0.03373 z m -13.910597,-0.681657 0.0048,-0.687893 0.295474,0.0015 c 0.23228,0.0015 0.316686,0.0085 0.39465,0.03455 0.120106,0.04017 0.232197,0.145692 0.25963,0.244492 0.01076,0.03876 0.01943,0.228344 0.01926,0.421327 -2.94e-4,0.398507 -0.01466,0.456768 -0.136933,0.557559 -0.114926,0.09473 -0.217324,0.116494 -0.548188,0.116494 h -0.293578 z m 0.584828,0.442173 c 0.03459,-0.01213 0.07931,-0.04416 0.09936,-0.07124 0.03341,-0.04505 0.0362,-0.07678 0.03338,-0.378578 l -0.003,-0.329392 -0.05507,-0.05541 c -0.05224,-0.0526 -0.06403,-0.05578 -0.230181,-0.06185 l -0.175112,-0.0067 v 0.46347 0.463455 l 0.133888,-0.0015 c 0.07363,-6e-4 0.162194,-0.01095 0.196792,-0.02308 z m 0.63002,-0.137459 c 0.06934,-0.21076 0.170801,-0.520312 0.225456,-0.687901 l 0.09938,-0.304706 0.156819,-0.0052 0.156818,-0.0052 0.21611,0.680659 c 0.118858,0.374376 0.216106,0.686302 0.216106,0.69319 0,0.0067 -0.05767,0.01243 -0.128153,0.01243 h -0.128152 l -0.04789,-0.156973 -0.04789,-0.156966 h -0.238876 -0.238883 l -0.04894,0.156966 -0.04894,0.156973 H 25.66617 25.531642 Z m 0.641113,-0.186031 c -0.05905,-0.217025 -0.152621,-0.520326 -0.160502,-0.520289 -0.0087,3.7e-5 -0.168812,0.529063 -0.167611,0.553962 2.94e-4,0.0052 0.07607,0.0067 0.168493,0.0029 0.14665,-0.0052 0.166974,-0.0099 0.15962,-0.03691 z m 0.614243,-0.120984 V 86.51975 l 0.156558,0.0029 c 0.08611,0.0015 0.163866,0.01088 0.172799,0.02078 0.0089,0.0099 0.09964,0.180001 0.201559,0.378059 0.101926,0.198059 0.22569,0.438335 0.275029,0.533953 l 0.08971,0.173854 0.0049,-0.555656 0.0049,-0.55565 0.105918,0.0029 0.105916,0.0029 0.0048,0.6879 0.0048,0.687901 h -0.174758 -0.174759 l -0.06325,-0.115422 c -0.03478,-0.06347 -0.159847,-0.3047 -0.27791,-0.536046 l -0.214657,-0.420625 v 0.536039 0.536054 h -0.110804 -0.110803 z m 2.603868,0.0067 v -0.683285 h 0.12927 0.129269 v 0.25854 c 0,0.25598 4.23e-4,0.258533 0.04155,0.257933 0.03161,-3.55e-4 0.08774,-0.06236 0.234532,-0.258539 l 0.192984,-0.257934 h 0.1636 c 0.126052,0 0.160379,0.0052 0.14957,0.02308 -0.0078,0.01272 -0.110009,0.1395 -0.22731,0.281789 -0.117306,0.142289 -0.224239,0.272632 -0.237626,0.289646 -0.02132,0.02715 0.01029,0.07701 0.254271,0.401495 l 0.278616,0.370559 h -0.17446 -0.17446 l -0.209081,-0.304678 c -0.165832,-0.241658 -0.217678,-0.304692 -0.250634,-0.304706 -0.04141,-1.5e-5 -0.04155,0.0015 -0.04155,0.304691 v 0.304708 h -0.129271 -0.12927 z m 2.917807,-0.0085 v -0.691851 l 0.161589,0.0037 0.161584,0.0037 0.129581,0.249308 c 0.07127,0.137118 0.200077,0.385575 0.286243,0.552128 l 0.156658,0.302821 0.0049,-0.555362 0.0049,-0.555353 0.105917,0.0029 0.105917,0.0029 0.0048,0.6879 0.0048,0.687908 h -0.174886 -0.174882 l -0.04466,-0.07849 c -0.02456,-0.0432 -0.149568,-0.284275 -0.277786,-0.535802 l -0.233161,-0.45735 v 0.535803 0.535816 H 32.54549 32.434685 Z m 1.458904,0.0015 v -0.689796 l 0.120038,-0.0022 0.120033,-0.0022 v 0.691843 0.691836 H 34.0137 33.893662 Z m 0.686008,0.0095 c -0.123383,-0.374901 -0.224332,-0.684912 -0.224332,-0.688906 0,-0.0045 0.05806,-0.0081 0.129016,-0.0091 l 0.129012,-0.0015 0.127819,0.399239 c 0.0703,0.219577 0.146852,0.459505 0.170111,0.533169 0.02326,0.07368 0.04766,0.127679 0.05422,0.12003 0.0066,-0.0077 0.08849,-0.248938 0.182054,-0.536232 l 0.170121,-0.522338 0.127939,0.0029 c 0.120395,0.0029 0.127341,0.0052 0.11772,0.04224 -0.0057,0.02138 -0.108201,0.329829 -0.227956,0.685319 l -0.217733,0.646349 -0.156835,0.0052 -0.156832,0.0052 z m 1.216106,-0.0097 v -0.689965 l 0.387766,0.0022 0.387766,0.0022 3.9e-5,0.115421 3.5e-5,0.115415 H 36.31284 36.054301 v 0.166206 0.166205 h 0.222528 0.222525 l -0.0055,0.10619 -0.0055,0.106182 -0.216992,0.0052 -0.216988,0.0052 v 0.184085 0.184085 h 0.275367 0.275368 l 0.0062,0.110835 0.0062,0.110835 -0.410892,-2.9e-5 -0.410878,-2.9e-5 z m 1.071095,-0.0022 v -0.692502 l 0.32779,0.0059 c 0.355945,0.0059 0.425214,0.0219 0.526431,0.11881 0.06322,0.06058 0.08737,0.144347 0.0875,0.303583 1.48e-4,0.190601 -0.05045,0.283742 -0.188279,0.346532 l -0.06834,0.03115 0.156067,0.281064 c 0.08583,0.154584 0.156061,0.285252 0.156061,0.290386 0,0.0052 -0.06321,0.0067 -0.140467,0.0045 l -0.140463,-0.0052 -0.148186,-0.272387 -0.148185,-0.272396 h -0.08992 -0.08993 v 0.277011 0.277004 H 36.986905 36.86687 Z m 0.644454,-0.127531 c 0.03095,-0.02804 0.03883,-0.05689 0.03883,-0.1424 0,-0.161146 -0.0307,-0.182531 -0.262023,-0.182531 h -0.181189 v 0.186407 0.1864 l 0.182776,-0.0067 c 0.147947,-0.0052 0.190179,-0.0131 0.221605,-0.0415 z m 1.779132,0.13251 0.0048,-0.687538 0.124653,-0.0029 0.124654,-0.0029 v 0.690616 0.690615 H 39.41509 39.285595 Z m 0.882033,0.115651 v -0.57188 l -0.205632,-0.0052 -0.205631,-0.0052 0.0014,-0.09695 c 7.16e-4,-0.05334 0.0018,-0.103298 0.0024,-0.111042 7.15e-4,-0.0078 0.24015,-0.01398 0.532161,-0.01384 l 0.530931,1.48e-4 0.0054,0.115414 0.0054,0.115422 h -0.213251 -0.213254 v 0.572486 0.572478 h -0.119935 -0.120037 v -0.571888 z m 1.27059,0.313052 0.0056,-0.258895 -0.241049,-0.415979 c -0.13258,-0.228802 -0.24105,-0.423117 -0.24105,-0.43184 0,-0.0087 0.06269,-0.01457 0.1393,-0.0131 l 0.1393,0.0029 0.14865,0.286243 c 0.08176,0.157432 0.155051,0.29299 0.16287,0.301245 0.0078,0.0083 0.0371,-0.02914 0.06507,-0.08311 0.02798,-0.054 0.100038,-0.19083 0.160142,-0.304166 l 0.109279,-0.206062 0.137876,0.0015 c 0.07583,6e-4 0.13787,0.0087 0.13787,0.01738 0,0.0087 -0.108032,0.199012 -0.24007,0.422939 l -0.240075,0.407139 v 0.266272 0.266293 l -0.124652,3.7e-5 -0.124655,3.6e-5 0.0056,-0.258886 z M 27.448148,86.588977 c -2.94e-4,-0.0052 0.01825,-0.08244 0.04116,-0.171309 l 0.04165,-0.161582 h 0.125693 c 0.144394,0 0.143395,-0.02049 0.01004,0.205907 -0.06746,0.11452 -0.07726,0.123286 -0.145201,0.129766 -0.04008,0.0037 -0.07308,0.0022 -0.07334,-0.0029 z m -2.061604,-1.93145 -0.360743,-0.730591 0.06184,-0.08759 c 0.03401,-0.04815 0.12416,-0.1764 0.200336,-0.284934 l 0.138503,-0.197349 0.226224,-1.48e-4 0.226221,-1.47e-4 v -0.415461 -0.415499 l -0.221989,0.169505 c -0.128852,0.09839 -0.228323,0.162299 -0.237085,0.152342 -0.0083,-0.0094 -0.05352,-0.06806 -0.100491,-0.130276 l -0.08539,-0.113121 -0.0021,-0.372727 -0.0021,-0.372726 0.232289,-0.174704 0.232289,-0.17469 v -0.09362 c 0,-0.08997 -0.0069,-0.102551 -0.176266,-0.322757 l -0.176267,-0.229142 -0.188459,0.14189 c -0.103652,0.07803 -0.191532,0.144094 -0.195287,0.146787 -0.0037,0.0029 0.02399,0.0469 0.06165,0.09819 0.07437,0.101322 0.07115,0.101241 0.191214,0.0045 0.04391,-0.03521 0.08606,-0.05681 0.09367,-0.04793 0.05807,0.06799 0.131207,0.172464 0.131207,0.187422 0,0.02374 -0.348511,0.285666 -0.383672,0.288373 -0.01483,0.0015 -0.102855,-0.09764 -0.195606,-0.219526 l -0.168644,-0.221604 0.0063,-0.110806 0.0063,-0.110799 0.333461,-0.249307 c 0.183402,-0.137119 0.342584,-0.251024 0.353732,-0.253118 0.01115,-0.0022 0.142847,0.158438 0.292662,0.356741 l 0.27239,0.360542 v 0.201174 0.201179 l -0.239706,0.180779 -0.239705,0.18077 -2.95e-4,0.244685 c -1.46e-4,0.134581 0.0059,0.244491 0.01349,0.244247 0.0076,-3.03e-4 0.204986,-0.143968 0.438593,-0.319383 l 0.424746,-0.318932 0.0092,-0.266071 0.0092,-0.26607 0.249307,-0.189877 c 0.137117,-0.104436 0.249307,-0.196246 0.249307,-0.204028 0,-0.0219 -0.108977,-0.170266 -0.125408,-0.17071 -0.008,-1.49e-4 -0.113648,0.07439 -0.234703,0.165813 -0.121054,0.09141 -0.227969,0.166198 -0.237587,0.166198 -0.01583,0 -0.150223,-0.172937 -0.150223,-0.193317 0,-0.0045 0.101801,-0.08478 0.226223,-0.177952 0.124422,-0.09316 0.228983,-0.171695 0.23236,-0.174505 0.0034,-0.0029 -0.02523,-0.04712 -0.06358,-0.0985 l -0.06971,-0.09338 -0.05647,0.04224 c -0.03106,0.02323 -0.114053,0.08555 -0.18444,0.138413 -0.07038,0.05289 -0.1352,0.09371 -0.144028,0.09077 -0.0088,-0.0029 -0.04764,-0.0466 -0.08624,-0.097 l -0.07019,-0.09166 0.191902,-0.144479 0.191901,-0.144486 -0.05946,-0.07749 c -0.03271,-0.04261 -0.06472,-0.08382 -0.07114,-0.09154 -0.0064,-0.0078 -0.07289,0.03181 -0.147696,0.08772 -0.07481,0.05599 -0.141869,0.101766 -0.149021,0.101766 -0.0072,0 -0.0467,-0.04468 -0.08789,-0.09919 l -0.07489,-0.0992 0.14704,-0.105273 0.147041,-0.105273 -0.05932,-0.07716 c -0.03263,-0.04246 -0.06669,-0.08704 -0.07571,-0.09913 -0.01148,-0.01539 0.157927,-0.152729 0.566671,-0.459349 l 0.582994,-0.437363 v -0.164222 -0.164757 l 0.124655,0.0054 0.124653,0.0054 v 0.134726 c 0,0.119748 0.0041,0.135619 0.03694,0.142733 0.02031,0.0045 0.106987,0.02075 0.192609,0.03633 0.08562,0.0156 0.159347,0.03201 0.163835,0.03649 0.0045,0.0045 -0.0021,0.06248 -0.01461,0.12886 -0.02047,0.108515 -0.02676,0.119872 -0.06227,0.112485 -0.155935,-0.03243 -0.240783,-0.04685 -0.275855,-0.04685 h -0.04064 l 0.0039,0.428353 0.0039,0.428357 0.328491,0.180874 c 0.180672,0.09948 0.336063,0.180956 0.345316,0.181059 0.0092,1.41e-4 0.07798,-0.04586 0.152735,-0.102106 0.07475,-0.0563 0.146126,-0.105835 0.158614,-0.11017 0.0199,-0.0067 0.174709,0.189707 0.158326,0.201106 -0.115049,0.08001 -0.200147,0.146499 -0.199755,0.156056 2.93e-4,0.0067 0.08801,0.0594 0.194972,0.116923 l 0.19447,0.104638 0.385777,-0.186852 0.385776,-0.186859 0.0977,-0.281856 0.0977,-0.28186 0.157188,-0.0054 0.157188,-0.0054 0.003,-0.240074 0.003,-0.240072 2.771658,-0.0046 2.771657,-0.0046 v 0.248647 0.248648 l 0.159842,0.0054 0.159842,0.0054 0.09233,0.273745 0.09233,0.273734 0.385716,0.193027 0.385716,0.193022 0.123881,-0.06768 c 0.06814,-0.03721 0.159806,-0.088 0.203718,-0.112848 l 0.07984,-0.04512 -0.110919,-0.08242 -0.110918,-0.08243 0.07529,-0.100672 c 0.04141,-0.05541 0.07874,-0.100671 0.08295,-0.100671 0.0042,0 0.07391,0.05045 0.154861,0.112049 0.08096,0.06162 0.158339,0.109407 0.171955,0.106182 0.01362,-0.0029 0.17105,-0.08481 0.349857,-0.181303 l 0.325097,-0.175438 3.53e-4,-0.429355 3.52e-4,-0.429364 -0.04155,7.16e-4 c -0.02287,2.93e-4 -0.09972,0.012 -0.170822,0.02583 -0.07109,0.01384 -0.133422,0.02117 -0.138501,0.0163 -0.01048,-0.01006 -0.05376,-0.234002 -0.04672,-0.241815 0.0024,-0.0029 0.07846,-0.01772 0.168771,-0.03317 0.247853,-0.04238 0.228828,-0.02704 0.228828,-0.184599 v -0.137316 h 0.129273 0.12927 l 7.15e-4,0.170822 7.16e-4,0.170819 0.571514,0.424745 c 0.314334,0.23361 0.571635,0.431858 0.571786,0.440558 1.45e-4,0.0087 -0.02326,0.0461 -0.05203,0.0831 -0.02876,0.03699 -0.0581,0.07729 -0.0652,0.08952 -0.0082,0.01406 0.03826,0.06073 0.125939,0.126711 0.08979,0.06754 0.134016,0.112375 0.125211,0.126791 -0.04302,0.0705 -0.126601,0.175985 -0.13967,0.176318 -0.0084,1.55e-4 -0.06656,-0.03839 -0.129272,-0.08585 -0.06271,-0.04749 -0.123695,-0.09358 -0.135525,-0.10252 -0.01443,-0.01095 -0.04325,0.01221 -0.08772,0.07043 -0.03642,0.04772 -0.06621,0.09214 -0.06621,0.09876 0,0.0067 0.08272,0.0733 0.183832,0.148222 0.113996,0.08444 0.178888,0.144221 0.170821,0.157358 -0.0072,0.01162 -0.04116,0.0597 -0.07558,0.106849 l -0.06257,0.08566 -0.191106,-0.146143 -0.191103,-0.14615 -0.06489,0.08498 c -0.03569,0.04676 -0.06489,0.09126 -0.06489,0.09894 0,0.0077 0.103451,0.09109 0.229886,0.18535 0.141774,0.105716 0.224943,0.179453 0.216992,0.192392 -0.0071,0.01154 -0.04094,0.0594 -0.07521,0.106294 l -0.06231,0.08531 -0.221833,-0.167508 c -0.122007,-0.09213 -0.233557,-0.168475 -0.247889,-0.16966 -0.01433,-0.0015 -0.05437,0.03581 -0.08899,0.08207 l -0.06293,0.08421 0.268468,0.200462 0.268469,0.20047 -0.0054,0.257112 -0.0054,0.257119 0.428351,0.321545 c 0.235594,0.176849 0.432624,0.32155 0.437848,0.32155 0.0053,0 0.0095,-0.111353 0.0095,-0.247451 V 81.993964 L 39.590416,81.821856 39.359579,81.649739 V 81.43614 81.222546 l 0.259784,-0.340984 c 0.142886,-0.187539 0.267126,-0.348462 0.276086,-0.357598 0.0096,-0.0097 0.161678,0.09223 0.368093,0.246771 l 0.351799,0.263392 v 0.106323 c 0,0.105539 -0.0011,0.107943 -0.167666,0.325715 -0.09222,0.12066 -0.174644,0.22193 -0.183166,0.225038 -0.01144,0.0045 -0.350139,-0.233951 -0.40429,-0.284224 -0.004,-0.0037 0.02784,-0.05312 0.07067,-0.109837 0.05259,-0.06969 0.0849,-0.09791 0.09954,-0.08702 0.01192,0.0089 0.05737,0.04357 0.101005,0.07719 0.04364,0.03359 0.08132,0.058 0.08375,0.05422 0.0024,-0.0037 0.03522,-0.04557 0.07288,-0.0929 l 0.06843,-0.08604 -0.191879,-0.142718 c -0.105533,-0.0785 -0.198965,-0.140825 -0.207622,-0.138517 -0.0086,0.0022 -0.08846,0.100102 -0.177328,0.217307 -0.158935,0.209606 -0.161585,0.214813 -0.161585,0.31746 v 0.104355 l 0.230836,0.172109 0.230839,0.172122 v 0.361231 0.361224 l -0.102427,0.13609 c -0.06527,0.08671 -0.110492,0.131289 -0.124654,0.122871 -0.01817,-0.0108 -0.329498,-0.241318 -0.414651,-0.307023 -0.01832,-0.01413 -0.02308,0.06857 -0.02308,0.399964 v 0.417769 h 0.229117 0.229122 l 0.202155,0.284135 0.202159,0.284142 -0.360737,0.73156 -0.360738,0.731546 h -0.66134 -0.661487 v -0.129477 c 0,-0.125579 0.0047,-0.138902 0.157075,-0.44321 l 0.157072,-0.313731 h 0.180522 0.180519 l 0.06853,-0.138509 0.06854,-0.138502 h -0.406123 -0.406128 v -0.654968 -0.654967 l -0.133865,-0.101292 -0.133865,-0.101279 -0.512445,0.262261 -0.512441,0.262254 -3.8e-5,0.357465 -3.6e-5,0.357464 0.119858,0.171924 0.119861,0.171909 -0.114765,0.232382 -0.114766,0.232397 h -0.180381 -0.180363 l -0.09251,0.184329 c -0.05088,0.10139 -0.09251,0.18657 -0.09252,0.189293 -10e-6,0.0029 0.1958,0.0022 0.435134,-2.96e-4 l 0.435147,-0.0052 0.215831,-0.437935 c 0.1187,-0.240868 0.217888,-0.442092 0.220404,-0.447174 0.0024,-0.0052 -0.04525,-0.07987 -0.10615,-0.166205 l -0.110728,-0.156966 -3.7e-5,-0.281627 -3.4e-5,-0.281627 h 0.249303 0.249308 v 0.129278 0.129269 h -0.120009 -0.120039 v 0.111975 c 0,0.109341 0.0032,0.116339 0.13257,0.297649 l 0.13257,0.185683 -0.293925,0.588776 -0.293926,0.58876 h -0.660395 -0.660433 v -0.12947 c 0,-0.125593 0.0047,-0.138909 0.157072,-0.443216 l 0.157075,-0.313739 h 0.180889 0.18089 l 0.04061,-0.0836 c 0.02234,-0.04594 0.04062,-0.09165 0.04062,-0.1015 0,-0.0098 -0.0417,-0.07632 -0.09264,-0.147734 l -0.09264,-0.129832 0.005,-0.48075 0.005,-0.480744 0.15697,-0.08367 c 0.08633,-0.04601 0.321924,-0.166471 0.523529,-0.267683 l 0.366561,-0.184017 -0.209588,-0.157188 -0.209591,-0.157188 -0.0092,0.115562 c -0.0088,0.110281 -0.01175,0.116154 -0.06463,0.128723 -0.03045,0.0074 -0.368198,0.0815 -0.750505,0.165029 l -0.695105,0.151847 -0.186476,-0.05504 -0.186479,-0.05503 -0.0048,0.672892 -0.0048,0.672876 -0.212372,0.08207 c -0.116804,0.04512 -0.536471,0.206137 -0.93259,0.357791 -0.39612,0.151647 -0.922833,0.353545 -1.170474,0.448653 l -0.45026,0.172929 -0.593133,-0.227189 c -0.326341,-0.125007 -0.946436,-0.362982 -1.378104,-0.528883 l -0.784853,-0.30163 -0.0048,-0.797552 c -0.0026,-0.438668 -0.01157,-0.797561 -0.01983,-0.797561 -0.0083,0 -0.08443,0.02079 -0.169262,0.04616 -0.153856,0.04601 -0.156197,0.04616 -0.926611,0.04616 h -0.772365 v -0.147742 c 0,-0.08126 -0.0053,-0.14774 -0.01182,-0.14774 -0.02932,0 -0.413303,0.302413 -0.400083,0.3151 0.0082,0.0078 0.245469,0.131977 0.527323,0.275864 l 0.512463,0.261618 v 0.47117 0.471171 l -0.102282,0.145138 -0.102282,0.145144 0.04719,0.09313 0.04719,0.09313 h 0.181276 0.181275 l 0.150822,0.310906 c 0.145819,0.300594 0.150821,0.315301 0.150821,0.44321 v 0.13231 h -0.655526 -0.655528 l -0.294124,-0.588028 -0.294126,-0.588028 0.127865,-0.181962 c 0.125414,-0.178478 0.127865,-0.184196 0.127865,-0.298397 v -0.116391 h -0.110886 -0.110802 v -0.12927 -0.12927 h 0.240071 0.240074 v 0.288048 0.288041 l -0.101568,0.144131 c -0.05587,0.07927 -0.101571,0.149806 -0.101571,0.156751 0,0.0067 0.09695,0.211352 0.215436,0.454253 l 0.215435,0.441619 h 0.437014 0.437014 l -0.09382,-0.184551 -0.09382,-0.184558 -0.180656,-1.48e-4 -0.180655,-1.47e-4 -0.110201,-0.225881 c -0.06062,-0.124247 -0.110202,-0.232849 -0.110202,-0.241363 0,-0.0085 0.05419,-0.09123 0.120423,-0.183803 l 0.120422,-0.168343 -0.005,-0.350609 -0.005,-0.350607 -0.0831,-0.04409 c -0.0457,-0.02426 -0.277146,-0.142873 -0.514309,-0.263673 l -0.431207,-0.219636 -0.136656,0.10286 -0.136659,0.102854 v 0.653347 0.653347 h -0.397045 c -0.218372,0 -0.397042,0.0045 -0.397042,0.0097 0,0.0052 0.02919,0.06768 0.06487,0.138502 l 0.06487,0.128812 h 0.180081 0.180083 l 0.152094,0.304847 c 0.149822,0.300298 0.152094,0.306927 0.152094,0.443217 v 0.138361 h -0.65677 -0.656767 z m 1.304041,0.287389 -0.0918,-0.184669 h -0.181733 -0.181733 l -0.193954,-0.392425 -0.193955,-0.392426 0.477437,-0.0045 0.477435,-0.0045 v -0.588487 -0.588486 l 0.553252,-0.41305 c 0.30429,-0.227174 0.553596,-0.418153 0.554015,-0.424397 4.24e-4,-0.0059 -0.05264,-0.08056 -0.117913,-0.165147 l -0.118675,-0.153808 0.10291,-0.07991 c 0.05661,-0.04394 0.104936,-0.07767 0.107411,-0.07492 0.0024,0.0029 0.089,0.11679 0.192277,0.253435 l 0.187775,0.248443 -0.0039,0.1486 -0.0039,0.148598 0.589189,0.0052 c 0.633596,0.0059 0.60881,0.0085 0.955169,-0.101093 l 0.08897,-0.02811 -0.0048,-0.104289 -0.0048,-0.104289 h 0.128233 0.128234 l 0.0047,0.951752 0.0047,0.951751 0.07832,0.02967 c 0.04308,0.01628 0.527073,0.202133 1.075545,0.412975 0.548474,0.210849 1.077756,0.4141 1.176178,0.451664 l 0.178951,0.06828 0.134991,-0.05304 c 0.07424,-0.02922 0.637755,-0.24609 1.252249,-0.481986 l 1.117264,-0.428895 0.0047,-0.826402 0.0047,-0.82641 h 0.12908 0.129082 v 0.110096 0.110088 l 0.07849,0.02049 c 0.04316,0.01124 0.128875,0.03581 0.190461,0.05444 l 0.111976,0.03395 0.55284,-0.120187 c 0.304064,-0.06613 0.584003,-0.127997 0.622092,-0.137554 l 0.06925,-0.01731 v -0.141424 -0.141431 l 0.186285,-0.245055 0.186286,-0.245046 0.09996,0.07546 c 0.05498,0.0415 0.09995,0.0792 0.09995,0.08377 0,0.0045 -0.05437,0.07792 -0.120817,0.163017 l -0.120822,0.154724 0.550182,0.412762 0.550181,0.41276 0.0049,0.594664 0.0049,0.594663 h 0.481432 c 0.296907,0 0.479066,0.0067 0.475269,0.01761 -0.0036,0.0097 -0.08926,0.187798 -0.190827,0.395835 l -0.18467,0.378245 -0.18512,0.0015 -0.18512,0.0015 -0.08727,0.175682 c -0.048,0.09662 -0.08727,0.179727 -0.08727,0.184669 0,0.0045 0.193993,0.009 0.431093,0.009 h 0.431113 l 0.289912,-0.584825 c 0.159451,-0.32164 0.28624,-0.594376 0.281754,-0.606064 -0.0045,-0.01169 -0.0565,-0.08924 -0.115588,-0.172337 l -0.10741,-0.15101 h -0.411509 -0.411514 v -0.129271 -0.129262 h 0.120038 0.120037 v -0.51523 -0.515222 L 38.92581,82.155626 38.694974,81.983511 v -0.261632 -0.261632 l -0.258928,-0.193842 -0.258927,-0.193842 0.07613,-0.09631 c 0.04187,-0.05297 0.06905,-0.102639 0.0604,-0.110377 -0.0086,-0.0078 -0.16946,-0.128663 -0.357361,-0.268712 -0.187906,-0.140047 -0.35021,-0.261209 -0.360684,-0.26925 -0.01542,-0.01183 -0.708217,0.350311 -0.871676,0.455666 -0.0406,0.02618 -0.0413,0.03366 -0.04617,0.481306 l -0.005,0.454726 -0.466963,0.219104 c -0.256831,0.120511 -0.473833,0.219112 -0.482229,0.219112 -0.0084,0 -0.04663,-0.0935 -0.08497,-0.207757 -0.03834,-0.11426 -0.07574,-0.21923 -0.08311,-0.233263 -0.01023,-0.01953 -0.05742,-0.02471 -0.200602,-0.02197 l -0.1872,0.0037 v -1.192212 -1.192187 h -2.511472 -2.511533 v 1.061238 1.061233 l -0.196884,0.0052 -0.196883,0.0052 -0.07412,0.216988 c -0.05334,0.156174 -0.08227,0.216662 -0.103207,0.215812 -0.016,-5.92e-4 -0.236848,-0.0321 -0.490773,-0.06998 l -0.461678,-0.06887 -0.0092,-0.474877 -0.0092,-0.474877 -0.438852,-0.238278 -0.438852,-0.238285 -0.369085,0.276101 c -0.202996,0.151861 -0.369084,0.28088 -0.369084,0.286701 0,0.0059 0.03064,0.05238 0.06809,0.103357 0.06766,0.09216 0.06785,0.09296 0.03026,0.122516 -0.0208,0.01642 -0.134552,0.102816 -0.252765,0.192133 l -0.214931,0.162388 -7.16e-4,0.262357 -7.15e-4,0.262357 -0.238714,0.175437 -0.238713,0.175437 -7.16e-4,0.512464 -7.16e-4,0.512456 h 0.129271 0.12927 v 0.128929 0.128922 l -0.418429,0.0045 -0.418429,0.0045 -0.116319,0.161308 -0.116318,0.161301 0.290058,0.590507 0.290056,0.590505 0.437882,5.93e-4 0.437884,5.98e-4 -0.0918,-0.184676 z m 5.808808,-0.454068 c -0.1155,-0.04815 -1.095009,-0.424937 -1.740222,-0.669392 l -0.373649,-0.141571 -2.97e-4,-2.05447 -2.93e-4,-2.054471 h 2.266841 2.266843 l -0.0045,2.054323 -0.0045,2.054314 -1.094339,0.421231 c -0.601889,0.231679 -1.119271,0.424605 -1.149741,0.428739 -0.03268,0.0045 -0.100871,-0.01147 -0.166205,-0.03868 z m 0.230839,-2.639213 v -1.412736 h -0.07387 -0.07387 v 1.412736 1.412736 h 0.07387 0.07387 z m 1.2284,1.271017 c -0.0072,-0.06776 -0.01778,-0.135225 -0.0234,-0.149849 -0.0085,-0.02197 0.0069,-0.02448 0.08953,-0.01428 0.05486,0.0067 0.122593,0.01672 0.150525,0.02204 l 0.05078,0.0097 v -0.141102 -0.141105 l -0.08772,0.01124 c -0.04824,0.0059 -0.115839,0.01554 -0.150212,0.02086 -0.04846,0.0076 -0.06027,0.0045 -0.0526,-0.01605 0.0054,-0.0142 0.01585,-0.08124 0.02308,-0.149035 l 0.0132,-0.123248 H 33.82918 c -0.110862,0 -0.140535,0.0052 -0.133233,0.02448 0.0051,0.01346 0.01542,0.08085 0.0228,0.149753 l 0.01341,0.125284 -0.07623,-0.01124 c -0.04193,-0.0059 -0.109476,-0.01613 -0.150102,-0.02212 l -0.07388,-0.01087 v 0.141254 0.141261 l 0.08772,-0.01117 c 0.04824,-0.0059 0.115757,-0.01546 0.150024,-0.02086 l 0.06231,-0.0097 -0.01334,0.124528 c -0.0073,0.0685 -0.01758,0.135536 -0.02273,0.149007 -0.0073,0.01901 0.02237,0.02448 0.133236,0.02448 h 0.14263 z m -2.139732,-0.05999 0.117246,-0.05489 v -0.241036 -0.241045 h -0.175437 -0.17544 v 0.0739 0.0739 h 0.0831 0.0831 v 0.12049 c 0,0.112351 -0.0032,0.12171 -0.04736,0.138509 -0.02605,0.0099 -0.101485,0.01798 -0.167624,0.01798 -0.108293,0 -0.125627,-0.0052 -0.174236,-0.054 l -0.05398,-0.05393 v -0.261181 c 0,-0.151772 0.0084,-0.276789 0.01994,-0.298456 0.05061,-0.09458 0.252709,-0.116694 0.397044,-0.04349 0.04997,0.02537 0.09225,0.04609 0.09396,0.04616 0.0018,3.7e-5 0.02125,-0.02929 0.04338,-0.0651 0.04918,-0.07957 0.03728,-0.09868 -0.09785,-0.15721 -0.195894,-0.08484 -0.459526,-0.04261 -0.572602,0.0918 -0.07484,0.08895 -0.09168,0.183382 -0.08416,0.472133 0.0057,0.216981 0.01263,0.268711 0.04349,0.321314 0.109225,0.186296 0.405115,0.236895 0.667437,0.114142 z m 2.139732,-1.08495 c -0.0072,-0.06776 -0.01778,-0.13521 -0.0234,-0.149827 -0.0083,-0.02152 0.0044,-0.02448 0.06645,-0.01524 0.04216,0.0059 0.109889,0.0162 0.150515,0.02219 l 0.07387,0.01088 v -0.142186 -0.142178 l -0.06002,0.01035 c -0.200235,0.03455 -0.241486,0.0361 -0.230984,0.0087 0.0057,-0.01487 0.01634,-0.08286 0.02364,-0.151129 l 0.0133,-0.124106 -0.13613,0.0052 c -0.07703,0.0029 -0.135043,0.01346 -0.133631,0.0239 0.0014,0.01014 0.0084,0.07562 0.01556,0.145477 l 0.01305,0.127007 -0.08944,-0.0125 c -0.0492,-0.0067 -0.116449,-0.01716 -0.14946,-0.02286 l -0.06001,-0.0105 v 0.142371 0.142378 l 0.115421,-0.01243 c 0.06348,-0.0067 0.131023,-0.01679 0.150098,-0.02234 0.03239,-0.0092 0.03381,-0.0015 0.02128,0.115348 -0.0074,0.06887 -0.01764,0.136267 -0.0228,0.149738 -0.0073,0.01901 0.02237,0.02448 0.133236,0.02448 h 0.142631 z m -2.594966,-0.613838 v -0.20155 l 0.211087,-0.0059 c 0.226879,-0.0067 0.267831,-0.02197 0.348431,-0.129884 0.07627,-0.102151 0.06292,-0.347006 -0.02435,-0.44639 -0.07462,-0.08498 -0.158405,-0.103978 -0.458842,-0.103978 h -0.261013 v 0.544783 0.544776 h 0.09234 0.09234 z m 0.0039,-0.541757 0.0053,-0.170821 0.12888,-0.0052 c 0.227159,-0.0098 0.26816,0.01798 0.26816,0.181273 0,0.147113 -0.02778,0.165932 -0.244876,0.165932 h -0.162788 z m 2.932354,-0.0131 c 0,-0.08084 0.0093,-0.209976 0.02082,-0.286969 0.01144,-0.07698 0.01637,-0.144412 0.01098,-0.149827 -0.0054,-0.0052 -0.05517,0.0202 -0.11053,0.05704 l -0.100678,0.06687 0.02478,0.105316 c 0.01362,0.05792 0.02492,0.111546 0.02505,0.119166 1.44e-4,0.0077 -0.05788,0.01384 -0.128984,0.01384 -0.147784,0 -0.149276,-0.0022 -0.09112,-0.142268 l 0.03815,-0.0918 -0.07762,-0.123802 -0.07763,-0.123811 -0.07325,0.122316 -0.07325,0.122301 0.03886,0.106575 c 0.02138,0.05859 0.03886,0.11196 0.03886,0.118536 0,0.0145 -0.248175,0.01613 -0.262594,0.0015 -0.0056,-0.0052 0.0014,-0.04845 0.01539,-0.09527 0.01408,-0.04683 0.02559,-0.09598 0.02559,-0.109334 0,-0.02138 -0.176009,-0.154524 -0.20422,-0.154524 -0.0059,0 -1.17e-4,0.08102 0.01295,0.180053 0.01305,0.09903 0.02404,0.231997 0.02443,0.295475 l 7.16e-4,0.115422 h 0.461683 0.461676 z m 1.838409,0.873183 c 0.146763,-0.06783 0.2665,-0.128064 0.266084,-0.133893 -3.52e-4,-0.0059 -0.176375,-0.141476 -0.39102,-0.301452 -0.389439,-0.290238 -0.390466,-0.290852 -0.48862,-0.290852 h -0.09838 l -10e-6,0.235453 -1.1e-5,0.235459 h 0.152364 0.152368 l 0.06446,0.189285 c 0.03546,0.104112 0.06703,0.189285 0.07019,0.189285 0.0032,0 0.125801,-0.05548 0.27256,-0.123285 z m -6.640551,-0.29515 0.0704,-0.200211 0.159046,-0.0052 0.159046,-0.0052 v -0.11008 -0.110089 h -0.104802 -0.1048 l -0.374478,0.281627 c -0.245662,0.184751 -0.363659,0.284032 -0.343027,0.288632 0.05643,0.01258 0.456031,0.0685 0.462204,0.06472 0.0033,-0.0022 0.03768,-0.0938 0.07641,-0.203917 z m -0.245591,-0.436721 0.33544,-0.251253 0.144706,-0.0052 0.144704,-0.0052 0.005,-0.438593 0.005,-0.438607 h -0.06962 -0.06962 l -0.08307,0.242421 -0.08307,0.24242 -0.355492,0.177493 -0.355493,0.177487 v 0.293337 c 0,0.231946 0.0048,0.28958 0.02308,0.275377 0.0127,-0.0099 0.174032,-0.131038 0.358524,-0.26923 z m 7.178603,-0.0081 -0.0021,-0.290858 -0.353313,-0.175156 -0.353317,-0.175149 -0.08,-0.240365 -0.08,-0.240357 -0.06783,-0.0059 -0.06783,-0.0059 v 0.444225 0.444333 l 0.143118,3.48e-4 0.14312,3.54e-4 0.350878,0.266108 c 0.19298,0.146365 0.355031,0.266677 0.36011,0.267372 0.0051,6e-4 0.0083,-0.129632 0.0071,-0.289601 z m -9.322751,-0.489402 c 0.19597,-0.144737 0.356822,-0.267313 0.357449,-0.272388 5.96e-4,-0.0045 -0.04757,-0.03595 -0.107088,-0.06864 l -0.108225,-0.05948 -0.320915,0.240608 c -0.176505,0.132325 -0.320918,0.246327 -0.320918,0.253339 0,0.02226 0.110098,0.168905 0.127096,0.169312 0.009,1.48e-4 0.176631,-0.118018 0.372601,-0.262756 z m 11.530046,0.185653 c 0.03134,-0.04261 0.057,-0.08315 0.057,-0.09006 0,-0.0067 -0.144657,-0.121118 -0.321463,-0.253806 l -0.321465,-0.241252 -0.1134,0.06058 -0.113404,0.06058 0.356379,0.269443 c 0.196013,0.148192 0.366054,0.270021 0.377873,0.270724 0.01182,5.91e-4 0.04714,-0.03359 0.07848,-0.07623 z m -11.909514,-0.517848 0.276834,-0.207534 v -0.145603 c 0,-0.113736 -0.0051,-0.141677 -0.02308,-0.127658 -0.0127,0.0098 -0.160202,0.120038 -0.327791,0.244818 -0.16759,0.124779 -0.316011,0.237353 -0.329826,0.250172 -0.02095,0.01946 -0.01482,0.03728 0.03694,0.107596 0.03413,0.04638 0.06837,0.08463 0.07608,0.08503 0.0078,3.56e-4 0.138598,-0.09267 0.290859,-0.206816 z m 12.212013,0.118078 0.06427,-0.08946 -0.348781,-0.261513 -0.348782,-0.261514 v 0.147261 0.14726 l 0.272392,0.203592 c 0.149815,0.111974 0.277844,0.203643 0.284509,0.203717 0.0067,6.7e-5 0.04104,-0.04009 0.07639,-0.08934 z m -12.369155,-0.617899 0.424743,-0.318827 0.0054,-0.1443 c 0.003,-0.08073 -0.002,-0.141471 -0.01127,-0.137874 -0.03577,0.01376 -0.9807,0.727496 -0.981409,0.741271 -8.87e-4,0.01709 0.114911,0.177664 0.128519,0.178204 0.0051,1.39e-4 0.200367,-0.143111 0.433977,-0.318474 z m 12.665639,0.228676 0.06529,-0.09086 -0.437508,-0.327743 c -0.240633,-0.180256 -0.464521,-0.348108 -0.497532,-0.373003 l -0.06002,-0.04527 v 0.145454 0.145454 l 0.420128,0.317102 c 0.231069,0.174409 0.425581,0.317697 0.432248,0.318422 0.0067,5.92e-4 0.04149,-0.03957 0.07739,-0.08956 z m -11.453236,-0.0503 c -0.04358,-0.05637 -0.0766,-0.104502 -0.07335,-0.107055 0.0033,-0.0022 0.08558,-0.06407 0.182965,-0.136711 0.169442,-0.126404 0.181439,-0.132086 0.278826,-0.132086 h 0.101764 l 0.02226,-0.159065 c 0.01225,-0.08748 0.01776,-0.163558 0.01226,-0.169055 -0.01572,-0.01574 -0.247985,-0.05607 -0.259055,-0.045 -0.0054,0.0054 -0.01005,0.03141 -0.01022,0.05763 -4.24e-4,0.08545 -0.01571,0.09251 -0.14746,0.06848 -0.08694,-0.01585 -0.118983,-0.02936 -0.11623,-0.04903 0.01131,-0.08082 0.06414,-0.378236 0.06783,-0.381923 0.0037,-0.0037 0.754261,0.12567 0.762043,0.131274 0.0015,0.0011 -0.02101,0.172268 -0.04992,0.380483 -0.02891,0.20822 -0.05295,0.388974 -0.05343,0.401667 -5.96e-4,0.01672 -0.0482,0.02308 -0.173645,0.02308 -0.166871,0 -0.175559,0.0022 -0.253925,0.06103 -0.04462,0.03359 -0.11046,0.08302 -0.146295,0.109866 l -0.06516,0.04882 z m 9.507769,-0.0067 -0.138502,-0.108874 -0.180057,-0.0015 -0.180057,-0.0015 v -0.05097 c 0,-0.02803 -0.02064,-0.196315 -0.04592,-0.373963 -0.02527,-0.177643 -0.04603,-0.336277 -0.04617,-0.352518 -1.45e-4,-0.02336 0.04903,-0.03835 0.235208,-0.07169 0.129503,-0.02318 0.297251,-0.05337 0.372776,-0.06707 0.07552,-0.01369 0.141003,-0.02121 0.145507,-0.01672 0.008,0.0079 0.07482,0.349187 0.07647,0.390254 3.53e-4,0.01133 -0.03657,0.02569 -0.08227,0.03198 -0.0457,0.0063 -0.10325,0.01645 -0.12789,0.02262 -0.04143,0.01038 -0.04576,0.0048 -0.0576,-0.07406 -0.01,-0.06661 -0.01941,-0.08351 -0.04293,-0.07714 -0.01659,0.0045 -0.06338,0.01349 -0.104005,0.02001 -0.138601,0.0222 -0.134496,0.01747 -0.117289,0.134853 0.03628,0.247409 0.02344,0.225885 0.134924,0.225885 0.09317,0 0.10878,0.0072 0.262319,0.121383 0.08979,0.06676 0.170387,0.12832 0.1791,0.136797 0.01422,0.01384 -0.113512,0.220939 -0.13588,0.220295 -0.0051,-1.33e-4 -0.07156,-0.04927 -0.147737,-0.109134 z"
     id="path863" />
  <path
     style="fill:#000000;stroke-width:0.0386603"
     d="m 7.51234,84.041967 v -5.799034 h 5.799035 5.799034 v 5.799034 5.799041 H 13.311375 7.51234 Z m 5.219131,4.368607 V 87.44407 H 11.301042 9.8706131 V 86.207605 84.97114 l 0.9761719,-0.01037 0.97617,-0.01029 v -0.947168 -0.947188 l -0.97617,-0.01029 -0.9761719,-0.01029 v -1.217127 -1.217134 h 0.4059329 0.405932 v -0.96657 -0.966504 H 9.3100415 7.9376029 v 5.354442 5.354443 h 2.3969331 2.396935 z m 2.628896,-3.421434 v -4.387931 h 1.636616 c 0.900139,0 1.643864,-0.0074 1.652725,-0.01603 0.0089,-0.0089 0.01117,-0.44376 0.0051,-0.966512 l -0.01099,-0.950452 h -3.76805 -3.768058 v 0.966504 0.966512 h 1.082487 1.082487 v 4.387931 4.387939 h 1.043825 1.043827 z m 1.914823,-4.746765 c -0.507052,-0.287182 -0.458977,-0.985791 0.08344,-1.212429 0.542035,-0.226476 1.196208,0.252711 1.053009,0.771338 -0.04984,0.18049 -0.245893,0.408142 -0.410859,0.477075 -0.198558,0.08296 -0.545996,0.06573 -0.725583,-0.03595 z m 1.371662,4.980322 c -5.93e-4,-2.274285 -0.01514,-4.14914 -0.03235,-4.166354 -0.01722,-0.01728 -0.447639,-0.02662 -0.956497,-0.02095 l -0.925196,0.01037 -0.0098,4.166308 -0.0098,4.166309 0.967388,-0.01029 0.967388,-0.01029 -0.0011,-4.135066 z"
     id="path879" />
  <text
     id="text7066"
     y="74.969498"
     x="8.179369"
     style="font-size:4.93889px;line-height:1.25;font-family:Helvetica-Normal;-inkscape-font-specification:Helvetica-Normal;letter-spacing:0px;word-spacing:0px;stroke-width:0.264583"
     xml:space="preserve"><tspan
       style="font-style:normal;font-variant:normal;font-weight:bold;font-stretch:normal;font-size:4.93889px;font-family:Arial;-inkscape-font-specification:'Arial Bold';stroke-width:0.264583"
       y="74.969498"
       x="8.179369"
       id="tspan7064"
       sodipodi:role="line">Carbospinner</tspan></text>
  <rect
     y="69.991318"
     x="6.5365291"
     height="6.7290649"
     width="36.964603"
     id="rect7068"
     style="opacity:0.997;fill:none;fill-opacity:0.371795;stroke:#000000;stroke-width:0.144537;stroke-linecap:butt;stroke-miterlimit:5.30435;stroke-dasharray:none;stroke-opacity:1" />
  <rect
     style="opacity:0.997;fill:none;fill-opacity:0.371795;stroke:#000000;stroke-width:0.207152;stroke-linecap:butt;stroke-miterlimit:5.30435;stroke-dasharray:none;stroke-opacity:1"
     id="rect7068-8"
     width="36.901989"
     height="13.845629"
     x="6.5678382"
     y="77.280853" />
</svg>
